<svg width="33" height="32" viewBox="0 0 33 32" fill="none" xmlns="http://www.w3.org/2000/svg">
<path d="M22.4968 6H10.5009C8.29208 6 6.5 7.78977 6.5 10.0009V21.9991C6.5 24.2079 8.28977 26 10.5009 26H22.4991C24.7079 26 26.5 24.2102 26.5 21.9991V10.0009C26.4977 7.79208 24.7056 6 22.4968 6ZM20.4986 9.00069H23.497V11.9991H20.4986V9.00069ZM16.4977 11.9991C18.7065 11.9991 20.4986 13.7888 20.4986 15.9977C20.4986 18.2065 18.7088 19.9986 16.4977 19.9986C14.2888 19.9986 12.4991 18.2088 12.4991 15.9977C12.4991 13.7865 14.2912 11.9991 16.4977 11.9991ZM24.4995 21.9968C24.4995 23.1035 23.6012 23.9949 22.4991 23.9949H10.5009C9.3965 23.9949 8.50046 23.1012 8.50046 21.9968V14.9975H10.6005C10.5449 15.3262 10.5009 15.6573 10.5009 16C10.5009 19.3156 13.1867 21.9991 16.5 21.9991C19.8156 21.9991 22.4991 19.3156 22.4991 16C22.4991 15.6573 22.4528 15.3262 22.3972 14.9998H24.4995V21.9968Z" fill="#D4DDED" fill-opacity="0.2"/>
</svg>
