<svg width="33" height="32" viewBox="0 0 33 32" fill="none" xmlns="http://www.w3.org/2000/svg">
<path d="M26.5 9.92403C25.7641 10.2504 24.9733 10.4709 24.1433 10.5701C24.9905 10.0623 25.6411 9.25817 25.9475 8.30005C25.1547 8.77022 24.2765 9.11171 23.3419 9.29577C22.5933 8.49831 21.527 7.99997 20.3468 7.99997C18.0807 7.99997 16.2434 9.83713 16.2434 12.1031C16.2434 12.4247 16.2798 12.7379 16.3497 13.0382C12.9395 12.8671 9.91607 11.2335 7.8923 8.75106C7.5391 9.35708 7.33675 10.0619 7.33675 10.8139C7.33675 12.2374 8.06121 13.4934 9.1622 14.2292C8.48954 14.2079 7.85689 14.0233 7.30361 13.716C7.30332 13.7331 7.30332 13.7503 7.30332 13.7676C7.30332 15.7556 8.71771 17.4141 10.5948 17.791C10.2505 17.8847 9.88798 17.9349 9.51372 17.9349C9.24933 17.9349 8.99226 17.9092 8.74178 17.8613C9.26389 19.4915 10.7792 20.6778 12.5748 20.7109C11.1705 21.8114 9.4012 22.4674 7.47882 22.4674C7.14765 22.4674 6.82101 22.448 6.5 22.4101C8.31587 23.5743 10.4727 24.2535 12.7899 24.2535C20.3372 24.2535 24.4644 18.0011 24.4644 12.5789C24.4644 12.401 24.4604 12.224 24.4525 12.0481C25.2542 11.4696 25.9499 10.7469 26.5 9.92403Z" fill="#D4DDED" fill-opacity="0.2"/>
</svg>
