<svg width="33" height="32" viewBox="0 0 33 32" fill="none" xmlns="http://www.w3.org/2000/svg">
<path d="M27.04 10.42C26.9212 9.94541 26.6792 9.51057 26.3386 9.15941C25.998 8.80824 25.5707 8.55318 25.1 8.42C23.38 8 16.5 8 16.5 8C16.5 8 9.61996 8 7.89996 8.46C7.42921 8.59318 7.00194 8.84824 6.66131 9.19941C6.32068 9.55057 6.07875 9.98541 5.95996 10.46C5.64518 12.2056 5.4912 13.9763 5.49996 15.75C5.48874 17.537 5.64273 19.3213 5.95996 21.08C6.09092 21.5398 6.33827 21.9581 6.67811 22.2945C7.01794 22.6308 7.43878 22.8738 7.89996 23C9.61996 23.46 16.5 23.46 16.5 23.46C16.5 23.46 23.38 23.46 25.1 23C25.5707 22.8668 25.998 22.6118 26.3386 22.2606C26.6792 21.9094 26.9212 21.4746 27.04 21C27.3523 19.2676 27.5063 17.5103 27.5 15.75C27.5112 13.963 27.3572 12.1787 27.04 10.42V10.42Z" stroke="#878A90" stroke-width="2" stroke-linecap="round" stroke-linejoin="round"/>
<path d="M14.25 19.02L20 15.75L14.25 12.48V19.02Z" stroke="#878A90" stroke-width="2" stroke-linecap="round" stroke-linejoin="round"/>
</svg>
