<svg width="768" height="512" viewBox="0 0 768 512" fill="none" xmlns="http://www.w3.org/2000/svg">
<rect width="768" height="512" fill="#383E4D"/>
<path d="M313.687 370.403H310.281C309.72 370.403 309.44 370.119 309.44 369.55V345.165C309.44 344.597 309.72 344.313 310.281 344.313H323.063C323.597 344.313 323.864 344.597 323.864 345.165V347.924C323.864 348.492 323.597 348.776 323.063 348.776H315.009C314.689 348.776 314.529 348.925 314.529 349.222V355.511C314.529 355.836 314.689 355.998 315.009 355.998H321.861C322.422 355.998 322.702 356.282 322.702 356.85V359.569C322.702 360.164 322.422 360.462 321.861 360.462H315.009C314.689 360.462 314.529 360.61 314.529 360.908V369.55C314.529 370.119 314.248 370.403 313.687 370.403Z" fill="#F39F47"/>
<path d="M334.45 370.403H333.128C331.071 370.403 329.509 369.834 328.44 368.698C327.398 367.562 326.877 365.926 326.877 363.789V350.561C326.877 349.993 327.158 349.709 327.719 349.709H331.125C331.686 349.709 331.966 349.993 331.966 350.561V363.545C331.966 364.411 332.14 365.033 332.487 365.412C332.861 365.763 333.462 365.939 334.29 365.939H335.772C337.616 365.939 338.537 364.911 338.537 362.856V350.561C338.537 349.993 338.818 349.709 339.379 349.709H342.744C343.332 349.709 343.626 349.993 343.626 350.561V369.55C343.626 370.119 343.332 370.403 342.744 370.403H339.379C338.818 370.403 338.537 370.119 338.537 369.55V368.211H338.377C338.083 368.942 337.562 369.496 336.814 369.875C336.066 370.227 335.278 370.403 334.45 370.403Z" fill="#F39F47"/>
<path d="M352.498 370.403H349.093C348.532 370.403 348.251 370.119 348.251 369.55V342.73C348.251 342.162 348.532 341.878 349.093 341.878H352.498C353.059 341.878 353.34 342.162 353.34 342.73V369.55C353.34 370.119 353.059 370.403 352.498 370.403Z" fill="#F39F47"/>
<path d="M362.398 370.403H358.992C358.431 370.403 358.151 370.119 358.151 369.55V342.73C358.151 342.162 358.431 341.878 358.992 341.878H362.398C362.959 341.878 363.24 342.162 363.24 342.73V369.55C363.24 370.119 362.959 370.403 362.398 370.403Z" fill="#F39F47"/>
<path d="M375.583 370.403H367.97C367.436 370.403 367.169 370.119 367.169 369.55V366.954C367.169 366.656 367.222 366.453 367.329 366.345C367.436 366.21 367.65 366.142 367.97 366.142H374.662C375.971 366.142 376.625 365.736 376.625 364.925V364.722C376.625 364.073 376.078 363.451 374.982 362.856L371.016 360.624C369.653 359.921 368.652 359.163 368.01 358.352C367.369 357.54 367.049 356.499 367.049 355.227C367.049 353.334 367.543 351.941 368.531 351.048C369.52 350.156 371.069 349.709 373.179 349.709H379.871C380.405 349.709 380.672 349.993 380.672 350.561V353.199C380.672 353.496 380.619 353.713 380.512 353.848C380.405 353.956 380.191 354.01 379.871 354.01H374.301C372.992 354.01 372.338 354.348 372.338 355.025V355.227C372.338 355.823 372.912 356.431 374.061 357.053L378.108 359.488C379.497 360.245 380.472 361.03 381.033 361.841C381.594 362.626 381.874 363.667 381.874 364.965C381.874 368.59 379.777 370.403 375.583 370.403Z" fill="#F39F47"/>
<path d="M385.86 354.172H384.257C383.937 354.172 383.71 354.118 383.576 354.01C383.469 353.902 383.416 353.686 383.416 353.361V350.561C383.416 349.993 383.696 349.709 384.257 349.709H385.86C386.154 349.709 386.301 349.56 386.301 349.263V345.408C386.301 344.84 386.594 344.556 387.182 344.556H390.548C391.109 344.556 391.389 344.84 391.389 345.408V349.263C391.389 349.56 391.55 349.709 391.87 349.709H394.995C395.556 349.709 395.837 349.993 395.837 350.561V353.361C395.837 353.659 395.77 353.875 395.637 354.01C395.53 354.118 395.316 354.172 394.995 354.172H391.87C391.55 354.172 391.389 354.321 391.389 354.619V363.586C391.389 364.424 391.576 365.033 391.95 365.412C392.324 365.763 392.939 365.939 393.793 365.939H395.396C395.957 365.939 396.238 366.223 396.238 366.791V369.591C396.238 369.889 396.171 370.105 396.037 370.24C395.93 370.348 395.717 370.403 395.396 370.403H392.952C390.842 370.403 389.199 369.834 388.024 368.698C386.875 367.562 386.301 365.939 386.301 363.829V354.619C386.301 354.321 386.154 354.172 385.86 354.172Z" fill="#F39F47"/>
<path d="M406.717 370.403H405.755C403.645 370.403 402.016 369.834 400.867 368.698C399.718 367.562 399.144 365.926 399.144 363.789V356.323C399.144 354.186 399.718 352.549 400.867 351.413C402.016 350.277 403.645 349.709 405.755 349.709H415.011C415.599 349.709 415.893 349.993 415.893 350.561V369.55C415.893 370.119 415.599 370.403 415.011 370.403H411.645C411.084 370.403 410.804 370.119 410.804 369.55V368.211H410.644C410.35 368.942 409.829 369.496 409.081 369.875C408.333 370.227 407.545 370.403 406.717 370.403ZM410.804 362.856V354.619C410.804 354.321 410.644 354.172 410.323 354.172H406.557C405.702 354.172 405.101 354.362 404.754 354.741C404.406 355.092 404.233 355.701 404.233 356.566V363.545C404.233 364.411 404.406 365.033 404.754 365.412C405.101 365.763 405.702 365.939 406.557 365.939H408.039C409.882 365.939 410.804 364.911 410.804 362.856Z" fill="#F39F47"/>
<path d="M433.305 366.791V369.591C433.305 369.889 433.239 370.105 433.105 370.24C432.998 370.348 432.784 370.403 432.464 370.403H426.494C424.383 370.403 422.754 369.834 421.605 368.698C420.457 367.562 419.882 365.926 419.882 363.789V356.323C419.882 354.186 420.457 352.549 421.605 351.413C422.754 350.277 424.383 349.709 426.494 349.709H432.464C433.025 349.709 433.305 349.993 433.305 350.561V353.361C433.305 353.659 433.239 353.875 433.105 354.01C432.998 354.118 432.784 354.172 432.464 354.172H427.295C426.467 354.172 425.866 354.362 425.492 354.741C425.145 355.092 424.971 355.701 424.971 356.566V363.545C424.971 364.411 425.145 365.033 425.492 365.412C425.866 365.763 426.467 365.939 427.295 365.939H432.464C433.025 365.939 433.305 366.223 433.305 366.791Z" fill="#F39F47"/>
<path d="M448.456 349.709H452.343C452.664 349.709 452.877 349.804 452.984 349.993C453.091 350.183 453.051 350.426 452.864 350.724L447.535 359.61V359.772L453.104 369.388C453.265 369.659 453.278 369.902 453.144 370.119C453.011 370.308 452.77 370.403 452.423 370.403H448.977C448.523 370.403 448.189 370.348 447.976 370.24C447.789 370.132 447.588 369.902 447.375 369.55L442.286 360.502C442.045 360.069 442.045 359.623 442.286 359.163L447.094 350.521C447.388 349.98 447.842 349.709 448.456 349.709ZM441.004 370.403H437.598C437.037 370.403 436.756 370.119 436.756 369.55V342.73C436.756 342.162 437.037 341.878 437.598 341.878H441.004C441.565 341.878 441.845 342.162 441.845 342.73V369.55C441.845 370.119 441.565 370.403 441.004 370.403Z" fill="#F39F47"/>
<path d="M463.389 370.403H455.776C455.242 370.403 454.975 370.119 454.975 369.55V366.954C454.975 366.656 455.028 366.453 455.135 366.345C455.242 366.21 455.455 366.142 455.776 366.142H462.467C463.776 366.142 464.431 365.736 464.431 364.925V364.722C464.431 364.073 463.883 363.451 462.788 362.856L458.821 360.624C457.459 359.921 456.457 359.163 455.816 358.352C455.175 357.54 454.854 356.499 454.854 355.227C454.854 353.334 455.349 351.941 456.337 351.048C457.325 350.156 458.875 349.709 460.985 349.709H467.676C468.211 349.709 468.478 349.993 468.478 350.561V353.199C468.478 353.496 468.424 353.713 468.317 353.848C468.211 353.956 467.997 354.01 467.676 354.01H462.107C460.798 354.01 460.143 354.348 460.143 355.025V355.227C460.143 355.823 460.718 356.431 461.866 357.053L465.913 359.488C467.302 360.245 468.277 361.03 468.838 361.841C469.399 362.626 469.68 363.667 469.68 364.965C469.68 368.59 467.583 370.403 463.389 370.403Z" fill="#F39F47"/>
<path fill-rule="evenodd" clip-rule="evenodd" d="M220.566 253.08C220.566 253.42 221.141 254.351 221.711 254.934C221.885 255.112 222.325 255.655 222.69 256.142C223.054 256.629 223.589 257.268 223.876 257.563C224.165 257.858 225.037 258.947 225.814 259.985C226.592 261.022 227.466 262.113 227.758 262.41C228.049 262.706 228.595 263.36 228.971 263.862C230.506 265.915 231.044 266.187 234.003 266.413C237.866 266.707 243.79 267.267 248.678 267.8C249.944 267.939 252.07 268.16 253.403 268.292C254.736 268.423 256.917 268.642 258.25 268.776C259.583 268.911 261.928 269.125 263.46 269.253C266.459 269.502 269.726 269.82 273.396 270.221C285.565 271.549 290.069 271.841 290.271 271.314C290.677 270.257 288.891 267.967 287.452 267.698C286.986 267.611 286.086 267.435 285.453 267.307C284.82 267.179 283.784 266.972 283.151 266.848C281.923 266.606 280.474 266.259 276.91 265.354C276.377 265.219 275.45 265.013 274.851 264.896C274.251 264.78 273.296 264.569 272.73 264.427C272.164 264.286 271.236 264.056 270.67 263.917C270.104 263.778 269.204 263.553 268.671 263.418C267.719 263.176 266.724 262.967 264.309 262.499C263.159 262.276 262.145 262.04 259.946 261.482C259.413 261.346 258.486 261.14 257.887 261.024C257.287 260.907 256.36 260.701 255.827 260.566C255.293 260.431 254.394 260.206 253.827 260.067C253.261 259.928 252.334 259.698 251.767 259.556C251.201 259.415 250.192 259.194 249.526 259.065C246.231 258.427 245.617 258.286 241.044 257.125C240.092 256.884 239.097 256.674 236.682 256.206C236.015 256.077 235.006 255.856 234.44 255.715C233.874 255.573 232.946 255.342 232.38 255.2C231.367 254.947 230.356 254.735 227.957 254.27C226.762 254.039 225.49 253.74 223.595 253.246C221.809 252.781 220.566 252.712 220.566 253.08ZM247.642 271.82C247.269 272.192 248.233 273.375 249.955 274.656C250.458 275.03 251.113 275.574 251.411 275.864C251.709 276.155 252.363 276.699 252.865 277.074C253.367 277.449 254.021 277.994 254.319 278.284C254.617 278.575 255.242 279.098 255.707 279.447C256.173 279.796 256.99 280.484 257.523 280.977C258.422 281.806 258.572 281.861 259.583 281.727C260.183 281.648 261.491 281.48 262.491 281.354C263.491 281.228 265.127 281.009 266.126 280.868C267.126 280.726 268.871 280.508 270.004 280.382C271.942 280.168 273.332 280 278.001 279.418C279.067 279.284 280.785 279.071 281.818 278.944C282.851 278.817 284.405 278.593 285.271 278.446C286.138 278.299 287.882 278.089 289.149 277.98C292.798 277.665 293.159 277.52 293.09 276.399C292.975 274.551 292.456 274.349 287.089 274.057C275.395 273.421 269.548 273.07 263.46 272.642C251.218 271.78 247.857 271.605 247.642 271.82ZM292.784 279.916C292.184 280.022 291.23 280.225 290.663 280.368C290.097 280.511 289.17 280.742 288.603 280.881C288.037 281.02 287.137 281.245 286.604 281.38C286.071 281.515 285.144 281.721 284.544 281.838C283.944 281.954 283.017 282.16 282.484 282.296C281.951 282.431 281.024 282.661 280.424 282.806C279.222 283.097 277.906 283.424 276.426 283.8C275.893 283.936 274.966 284.142 274.366 284.258C269.773 285.15 269.457 285.556 272.245 286.994C274.236 288.021 278.335 290.281 279.145 290.798C279.755 291.188 280.019 291.074 284.787 288.375C286.186 287.582 288.476 286.343 289.876 285.621C295.689 282.623 296.234 282.094 295.216 280.446C294.708 279.624 294.591 279.598 292.784 279.916Z" fill="#F39F47"/>
<path d="M191 224.541C191 224.838 191.946 226.265 196.27 232.496C197.437 234.176 199.277 236.845 200.359 238.425C202.853 242.068 204.218 243.114 206.475 243.114C206.792 243.114 207.721 243.324 208.538 243.58C210.273 244.124 212.956 244.894 214.507 245.292C215.591 245.571 217.198 246.019 220.445 246.947C221.378 247.214 222.604 247.55 223.171 247.693L225.231 248.216C225.797 248.359 226.97 248.677 227.836 248.923C228.702 249.168 229.902 249.495 230.502 249.649C231.102 249.803 232.329 250.138 233.228 250.394L236.5 251.324C237.399 251.58 238.572 251.897 239.105 252.03C240.98 252.496 242.271 252.838 243.831 253.279C244.697 253.524 245.897 253.851 246.496 254.005C247.096 254.159 248.323 254.495 249.223 254.75L252.494 255.68C254.104 256.138 255.368 256.473 257.281 256.948C257.814 257.081 258.959 257.39 259.825 257.635C260.692 257.881 261.864 258.199 262.43 258.342C262.997 258.486 263.924 258.721 264.49 258.865C265.057 259.008 266.229 259.327 267.096 259.572C267.962 259.817 269.162 260.144 269.761 260.298C270.361 260.452 271.588 260.787 272.488 261.043L275.759 261.973C276.659 262.229 277.831 262.546 278.364 262.679C280.24 263.145 281.53 263.487 283.09 263.928C284.586 264.352 285.571 264.61 287.634 265.121C291.87 266.171 291.571 265.887 294.542 271.673C295.806 274.135 297.777 277.947 298.922 280.144L303.969 277.635L301.517 273.254C301.305 273.062 300.713 272.002 300.202 270.898C296.128 262.101 296.302 262.368 294.152 261.602C293.333 261.31 291.736 260.724 290.603 260.299C289.47 259.874 287.343 259.092 285.877 258.56C284.411 258.029 282.066 257.177 280.667 256.667C279.267 256.158 276.923 255.306 275.456 254.774C272.916 253.853 271.069 253.169 266.732 251.542C264.876 250.845 262.992 250.156 256.978 247.975C248.746 244.99 248.533 244.912 242.982 242.829C241.086 242.117 238.783 241.275 233.168 239.242C231.635 238.687 229.208 237.806 227.775 237.285L222.565 235.39C221.132 234.869 218.76 234.009 217.294 233.48C215.828 232.951 214.029 232.277 213.296 231.981C212.562 231.686 210.79 231.02 209.357 230.502C207.925 229.984 205.58 229.134 204.147 228.613C201.396 227.613 197.575 226.227 194.15 224.988C191.94 224.188 191 224.055 191 224.541Z" fill="#F39F47"/>
<path fill-rule="evenodd" clip-rule="evenodd" d="M546.556 253.08C546.556 253.42 545.981 254.351 545.411 254.934C545.237 255.112 544.796 255.655 544.432 256.142C544.067 256.629 543.533 257.268 543.245 257.563C542.957 257.858 542.085 258.947 541.307 259.985C540.53 261.022 539.655 262.113 539.364 262.41C539.073 262.706 538.527 263.36 538.151 263.862C536.616 265.915 536.078 266.187 533.118 266.413C529.256 266.707 523.332 267.267 518.444 267.8C517.178 267.939 515.051 268.16 513.718 268.292C512.386 268.423 510.205 268.642 508.872 268.776C507.539 268.911 505.194 269.125 503.661 269.253C500.663 269.502 497.396 269.82 493.725 270.221C481.556 271.549 477.053 271.841 476.85 271.314C476.445 270.257 478.23 267.967 479.669 267.698C480.136 267.611 481.035 267.435 481.669 267.307C482.302 267.179 483.338 266.972 483.971 266.848C485.199 266.606 486.647 266.259 490.211 265.354C490.744 265.219 491.671 265.013 492.271 264.896C492.871 264.78 493.825 264.569 494.392 264.427C494.958 264.286 495.885 264.056 496.452 263.917C497.018 263.778 497.918 263.553 498.451 263.418C499.402 263.176 500.398 262.967 502.813 262.499C503.963 262.276 504.977 262.04 507.175 261.482C507.708 261.346 508.635 261.14 509.235 261.024C509.835 260.907 510.762 260.701 511.295 260.566C511.828 260.431 512.728 260.206 513.294 260.067C513.861 259.928 514.788 259.698 515.354 259.556C515.921 259.415 516.93 259.194 517.596 259.065C520.891 258.427 521.505 258.286 526.078 257.125C527.029 256.884 528.025 256.674 530.44 256.206C531.107 256.077 532.115 255.856 532.682 255.715C533.248 255.573 534.175 255.342 534.742 255.2C535.755 254.947 536.766 254.735 539.164 254.27C540.36 254.039 541.631 253.74 543.527 253.246C545.313 252.781 546.556 252.712 546.556 253.08ZM519.48 271.82C519.853 272.192 518.888 273.375 517.166 274.656C516.663 275.03 516.008 275.574 515.711 275.864C515.413 276.155 514.759 276.699 514.256 277.074C513.755 277.449 513.1 277.994 512.802 278.284C512.505 278.575 511.88 279.098 511.415 279.447C510.949 279.796 510.132 280.484 509.599 280.977C508.7 281.806 508.55 281.861 507.539 281.727C506.939 281.648 505.63 281.48 504.631 281.354C503.631 281.228 501.995 281.009 500.996 280.868C499.996 280.726 498.251 280.508 497.118 280.382C495.18 280.168 493.79 280 489.121 279.418C488.054 279.284 486.337 279.071 485.304 278.944C484.271 278.817 482.717 278.593 481.85 278.446C480.984 278.299 479.239 278.089 477.973 277.98C474.324 277.665 473.962 277.52 474.032 276.399C474.147 274.551 474.665 274.349 480.033 274.057C491.727 273.421 497.574 273.07 503.661 272.642C515.904 271.78 519.265 271.605 519.48 271.82ZM474.338 279.916C474.938 280.022 475.892 280.225 476.458 280.368C477.025 280.511 477.952 280.742 478.518 280.881C479.085 281.02 479.984 281.245 480.518 281.38C481.051 281.515 481.978 281.721 482.577 281.838C483.177 281.954 484.104 282.16 484.637 282.296C485.171 282.431 486.097 282.661 486.697 282.806C487.9 283.097 489.216 283.424 490.696 283.8C491.229 283.936 492.156 284.142 492.756 284.258C497.349 285.15 497.664 285.556 494.876 286.994C492.885 288.021 488.787 290.281 487.977 290.798C487.367 291.188 487.102 291.074 482.335 288.375C480.936 287.582 478.645 286.343 477.246 285.621C471.433 282.623 470.887 282.094 471.906 280.446C472.414 279.624 472.531 279.598 474.338 279.916Z" fill="#F39F47"/>
<path d="M576.122 224.541C576.122 224.838 575.176 226.265 570.851 232.496C569.685 234.176 567.845 236.845 566.763 238.425C564.269 242.068 562.904 243.114 560.647 243.114C560.329 243.114 559.401 243.324 558.584 243.58C556.849 244.124 554.166 244.894 552.614 245.292C551.531 245.571 549.924 246.019 546.677 246.947C545.744 247.214 544.517 247.55 543.951 247.693L541.891 248.216C541.324 248.359 540.152 248.677 539.286 248.923C538.419 249.168 537.22 249.495 536.62 249.649C536.02 249.803 534.793 250.138 533.894 250.394L530.622 251.324C529.722 251.58 528.55 251.897 528.017 252.03C526.141 252.496 524.851 252.838 523.291 253.279C522.425 253.524 521.225 253.851 520.625 254.005C520.025 254.159 518.798 254.495 517.899 254.75L514.627 255.68C513.017 256.138 511.753 256.473 509.841 256.948C509.308 257.081 508.163 257.39 507.296 257.635C506.43 257.881 505.258 258.199 504.691 258.342C504.125 258.486 503.198 258.721 502.631 258.865C502.065 259.008 500.893 259.327 500.026 259.572C499.16 259.817 497.96 260.144 497.36 260.298C496.761 260.452 495.534 260.787 494.634 261.043L491.362 261.973C490.463 262.229 489.29 262.546 488.757 262.679C486.882 263.145 485.591 263.487 484.032 263.928C482.536 264.352 481.551 264.61 479.488 265.121C475.252 266.171 475.551 265.887 472.58 271.673C471.316 274.135 469.344 277.947 468.2 280.144L463.153 277.635L465.605 273.254C465.817 273.062 466.408 272.002 466.92 270.898C470.993 262.101 470.819 262.368 472.97 261.602C473.789 261.31 475.386 260.724 476.519 260.299C477.652 259.874 479.778 259.092 481.245 258.56C482.711 258.029 485.055 257.177 486.455 256.667C487.854 256.158 490.199 255.306 491.665 254.774C494.206 253.853 496.052 253.169 500.39 251.542C502.245 250.845 504.13 250.156 510.144 247.975C518.376 244.99 518.589 244.912 524.139 242.829C526.036 242.117 528.339 241.275 533.954 239.242C535.487 238.687 537.913 237.806 539.346 237.285L544.557 235.39C545.989 234.869 548.361 234.009 549.828 233.48C551.294 232.951 553.093 232.277 553.826 231.981C554.559 231.686 556.332 231.02 557.764 230.502C559.197 229.984 561.542 229.134 562.975 228.613C565.726 227.613 569.547 226.227 572.971 224.988C575.182 224.188 576.122 224.055 576.122 224.541Z" fill="#F39F47"/>
<g clip-path="url(#clip0)">
<g filter="url(#filter0_d)">
<path d="M382.705 142.158L321.086 248.755L382.705 309.778L444.324 248.755L382.705 142.158ZM382.705 277.45L350.288 244.82L382.705 188.891L414.829 244.82L382.705 277.45Z" fill="#F39F47"/>
</g>
<g style="mix-blend-mode:overlay">
<path d="M444.325 248.754L382.705 309.778L382.705 277.45L414.829 244.819L444.325 248.754Z" fill="#2B303B" fill-opacity="0.5"/>
</g>
<g style="mix-blend-mode:soft-light">
<path d="M321.086 248.755L382.705 142.158L382.705 188.891L350.289 244.82L321.086 248.755Z" fill="#D4DDED" fill-opacity="0.5"/>
</g>
</g>
<path d="M327.076 306.357L330.343 316.403H340.913L332.362 322.612L335.628 332.658L327.076 326.449L318.525 332.658L321.791 322.612L313.239 316.403H323.81L327.076 306.357Z" fill="#F39F47"/>
<path d="M364.733 306.357L367.999 316.403H378.57L370.018 322.612L373.284 332.658L364.733 326.449L356.181 332.658L359.448 322.612L350.896 316.403H361.466L364.733 306.357Z" fill="#F39F47"/>
<path d="M402.389 306.357L405.655 316.403H416.226L407.674 322.612L410.941 332.658L402.389 326.449L393.837 332.658L397.104 322.612L388.552 316.403H399.122L402.389 306.357Z" fill="#F39F47"/>
<path d="M440.045 306.357L443.312 316.403H453.882L445.331 322.612L448.597 332.658L440.045 326.449L431.494 332.658L434.76 322.612L426.208 316.403H436.779L440.045 306.357Z" fill="#F39F47"/>
<path fill-rule="evenodd" clip-rule="evenodd" d="M477.122 260H288.122V300H477.122V260ZM314.974 292.524H319.563C320 292.524 320.262 292.294 320.349 291.836L323.332 276.464H323.463L326.413 291.836C326.479 292.294 326.741 292.524 327.2 292.524H331.821C332.258 292.524 332.509 292.294 332.575 291.836L336.115 272.17C336.18 271.689 335.951 271.449 335.426 271.449H332.018C331.515 271.449 331.253 271.689 331.231 272.17L329.363 288.296H329.101L325.889 272.006C325.823 271.634 325.583 271.449 325.167 271.449H321.497C321.103 271.449 320.874 271.645 320.808 272.039L317.662 288.296H317.432L315.531 272.137C315.509 271.678 315.247 271.449 314.745 271.449H311.336C310.811 271.449 310.582 271.678 310.648 272.137L314.155 291.836C314.22 292.294 314.493 292.524 314.974 292.524ZM337.775 292.524H340.921C341.14 292.524 341.293 292.48 341.38 292.393C341.489 292.284 341.566 292.098 341.609 291.836L342.527 288.23H348.919L349.836 291.836C349.88 292.098 349.946 292.284 350.033 292.393C350.12 292.48 350.284 292.524 350.525 292.524H353.671C354.064 292.524 354.196 292.294 354.064 291.836L348.886 272.137C348.777 271.678 348.449 271.449 347.902 271.449H343.543C343.041 271.449 342.713 271.678 342.56 272.137L337.381 291.836C337.25 292.294 337.381 292.524 337.775 292.524ZM343.314 284.887L345.674 275.415H345.805L348.165 284.887H343.314ZM357.658 292.524H360.444C360.903 292.524 361.132 292.294 361.132 291.836V286.231L363.197 283.805L368.212 291.836C368.474 292.294 368.988 292.524 369.753 292.524H372.145C372.451 292.524 372.648 292.458 372.735 292.327C372.844 292.174 372.823 291.967 372.67 291.705L365.721 280.823L371.949 272.203C372.123 271.984 372.178 271.809 372.112 271.678C372.069 271.525 371.927 271.449 371.686 271.449H368.474C367.906 271.449 367.48 271.678 367.196 272.137L362.214 279.446C361.711 280.277 361.373 280.954 361.198 281.478H361.132V272.137C361.132 271.678 360.903 271.449 360.444 271.449H357.658C357.199 271.449 356.97 271.678 356.97 272.137V291.836C356.97 292.294 357.199 292.524 357.658 292.524ZM374.296 292.524H377.442C377.661 292.524 377.814 292.48 377.901 292.393C378.011 292.284 378.087 292.098 378.131 291.836L379.048 288.23H385.44L386.358 291.836C386.401 292.098 386.467 292.284 386.554 292.393C386.642 292.48 386.805 292.524 387.046 292.524H390.192C390.586 292.524 390.717 292.294 390.586 291.836L385.407 272.137C385.298 271.678 384.97 271.449 384.424 271.449H380.064C379.562 271.449 379.234 271.678 379.081 272.137L373.903 291.836C373.771 292.294 373.903 292.524 374.296 292.524ZM379.835 284.887L382.195 275.415H382.326L384.686 284.887H379.835ZM397.26 292.524H400.013C400.472 292.524 400.702 292.294 400.702 291.836V275.415C400.702 275.174 400.833 275.054 401.095 275.054H404.832C405.29 275.054 405.52 274.825 405.52 274.366V272.137C405.52 271.678 405.29 271.449 404.832 271.449H392.442C391.983 271.449 391.754 271.678 391.754 272.137V274.366C391.754 274.825 391.983 275.054 392.442 275.054H396.179C396.419 275.054 396.539 275.174 396.539 275.415V291.836C396.539 292.294 396.78 292.524 397.26 292.524ZM412.349 291.836V272.137C412.349 271.678 412.12 271.449 411.661 271.449H408.875C408.416 271.449 408.187 271.678 408.187 272.137V291.836C408.187 292.294 408.416 292.524 408.875 292.524H411.661C412.12 292.524 412.349 292.294 412.349 291.836ZM435.607 271.449H430.756C430.407 271.449 430.199 271.602 430.134 271.908L426.627 283.478H426.43L422.956 271.908C422.846 271.602 422.639 271.449 422.333 271.449H417.449C416.99 271.449 416.761 271.678 416.761 272.137V291.836C416.761 292.294 416.99 292.524 417.449 292.524H420.137C420.421 292.524 420.607 292.48 420.694 292.393C420.781 292.284 420.825 292.098 420.825 291.836V276.267H420.956L424.365 287.28C424.496 287.717 424.769 287.935 425.184 287.935H427.938C428.353 287.935 428.626 287.717 428.757 287.28L432.1 276.3H432.231V291.836C432.231 292.294 432.461 292.524 432.92 292.524H435.607C436.066 292.524 436.296 292.294 436.296 291.836V272.137C436.296 271.678 436.066 271.449 435.607 271.449ZM441.231 292.524H451.949C452.386 292.524 452.605 292.294 452.605 291.836V289.607C452.605 289.148 452.386 288.919 451.949 288.919H445.099C444.837 288.919 444.706 288.798 444.706 288.558V284.002C444.706 283.762 444.837 283.642 445.099 283.642H450.704C451.162 283.642 451.392 283.412 451.392 282.953V280.724C451.392 280.266 451.162 280.036 450.704 280.036H445.099C444.837 280.036 444.706 279.916 444.706 279.676V275.415C444.706 275.174 444.837 275.054 445.099 275.054H451.949C452.386 275.054 452.605 274.825 452.605 274.366V272.137C452.605 271.678 452.386 271.449 451.949 271.449H441.231C440.772 271.449 440.543 271.678 440.543 272.137V291.836C440.543 292.294 440.772 292.524 441.231 292.524Z" fill="#F39F47"/>
<defs>
<filter id="filter0_d" x="296.503" y="129.867" width="172.403" height="216.785" filterUnits="userSpaceOnUse" color-interpolation-filters="sRGB">
<feFlood flood-opacity="0" result="BackgroundImageFix"/>
<feColorMatrix in="SourceAlpha" type="matrix" values="0 0 0 0 0 0 0 0 0 0 0 0 0 0 0 0 0 0 127 0" result="hardAlpha"/>
<feOffset dy="12.2911"/>
<feGaussianBlur stdDeviation="12.2911"/>
<feColorMatrix type="matrix" values="0 0 0 0 0.937255 0 0 0 0 0.411765 0 0 0 0 0.443137 0 0 0 0.15 0"/>
<feBlend mode="normal" in2="BackgroundImageFix" result="effect1_dropShadow"/>
<feBlend mode="normal" in="SourceGraphic" in2="effect1_dropShadow" result="shape"/>
</filter>
<clipPath id="clip0">
<rect width="123" height="111" fill="white" transform="translate(321.122 142)"/>
</clipPath>
</defs>
</svg>
