<svg width="33" height="32" viewBox="0 0 33 32" fill="none" xmlns="http://www.w3.org/2000/svg">
<path d="M17.4309 14.9258C17.4309 14.2183 17.9449 13.65 18.5959 13.65C19.2356 13.65 19.761 14.2183 19.761 14.9258C19.761 15.6334 19.247 16.2017 18.5959 16.2017C17.9563 16.2017 17.4309 15.6334 17.4309 14.9258Z" fill="#D4DDED" fill-opacity="0.2"/>
<path d="M13.2618 14.9258C13.2618 14.2183 13.7758 13.65 14.4269 13.65C15.078 13.65 15.6034 14.2183 15.5919 14.9258C15.5919 15.6334 15.078 16.2017 14.4269 16.2017C13.7873 16.2017 13.2618 15.6334 13.2618 14.9258Z" fill="#D4DDED" fill-opacity="0.2"/>
<path fill-rule="evenodd" clip-rule="evenodd" d="M8.84152 4H24.1471C25.4377 4 26.4886 5.06707 26.5 6.37771V27L24.0328 24.8311L22.6508 23.5436L21.1887 22.175L21.7941 24.2975H8.84152C7.55083 24.2975 6.5 23.2305 6.5 21.9198V6.37771C6.5 5.06707 7.55083 4 8.84152 4ZM18.9843 18.0923C19.327 18.5214 19.7381 19.0202 19.7381 19.0202C22.1297 18.9433 23.1166 17.4401 23.2138 17.292C23.2192 17.2838 23.2219 17.2804 23.2219 17.2804C23.2219 13.5804 21.5771 10.5764 21.5771 10.5764C19.9437 9.33535 18.3789 9.37015 18.3789 9.37015L18.219 9.55572C20.1608 10.1473 21.0631 11.0171 21.0631 11.0171C19.8752 10.3676 18.7102 10.0429 17.6251 9.91528C16.8027 9.82249 16.0146 9.84569 15.3178 9.93848C15.258 9.93848 15.2069 9.94732 15.1492 9.95728C15.1409 9.95873 15.1323 9.9602 15.1236 9.96167C14.7239 10.0081 13.753 10.1473 12.5308 10.6924C12.1082 10.878 11.8569 11.0171 11.8569 11.0171C11.8569 11.0171 12.7935 10.1009 14.8495 9.50933L14.7353 9.37015C14.7353 9.37015 13.1819 9.33535 11.5371 10.5764C11.5371 10.5764 9.89235 13.5804 9.89235 17.2804C9.89235 17.2804 10.8518 18.9506 13.3761 19.0318C13.3761 19.0318 13.7987 18.5214 14.1413 18.0807C12.6907 17.6399 12.1425 16.7237 12.1425 16.7237C12.1425 16.7237 12.2567 16.8048 12.4623 16.9208C12.4694 16.9208 12.4764 16.9253 12.4862 16.9314C12.4922 16.9352 12.4993 16.9396 12.508 16.944C12.5251 16.9556 12.5423 16.9643 12.5594 16.973C12.5765 16.9817 12.5937 16.9904 12.6108 17.002C12.8963 17.1644 13.1819 17.292 13.4446 17.3964C13.9129 17.5935 14.4726 17.7675 15.1236 17.8951C15.9803 18.0575 16.9854 18.1155 18.082 17.9067C18.6188 17.8023 19.167 17.6515 19.7381 17.408C20.1379 17.2572 20.5834 17.0368 21.0517 16.7237C21.0517 16.7237 20.4806 17.6631 18.9843 18.0923Z" fill="#D4DDED" fill-opacity="0.2"/>
</svg>
