<svg width="33" height="32" viewBox="0 0 33 32" fill="none" xmlns="http://www.w3.org/2000/svg">
<path d="M25.7511 7.03593L6.84751 14.159C6.37931 14.3376 6.38663 14.9806 6.85483 15.1521L11.4637 16.831L13.2487 22.4323C13.3657 22.7896 13.812 22.9253 14.1119 22.6824L16.6797 20.6391C16.9504 20.4248 17.3308 20.4176 17.6161 20.6105L22.2469 23.897C22.5688 24.1256 23.0151 23.9541 23.0955 23.5755L26.4899 7.63607C26.5704 7.22883 26.1534 6.8859 25.7511 7.03593ZM22.1518 10.7511L15.0849 17.1668C14.8362 17.3955 14.6752 17.6955 14.6313 18.0242L14.3899 19.7675C14.3607 20.0032 14.0241 20.0246 13.9583 19.796L13.0292 16.6167C12.9268 16.2524 13.0804 15.8665 13.4023 15.6665L21.9616 10.5153C22.1225 10.4224 22.2835 10.6296 22.1518 10.7511Z" fill="#D4DDED" fill-opacity="0.2"/>
</svg>
